<?xml version="1.0" encoding="utf-8"?>
<!-- Uploaded to: SVG Repo, www.svgrepo.com, Generator: SVG Repo Mixer Tools -->
<svg width="800px" height="800px" viewBox="0 0 1024 1024" class="icon"  version="1.1" xmlns="http://www.w3.org/2000/svg"><path d="M512 328c0-104 128-144 200-144 80 184-40 192-40 360 0 112 160 272 160 336 0 48-56 64-320 64s-320-16-320-64c0-64 160-224 160-336 0-168-120-176-40-360 72 0 200 40 200 144z" fill="#CB525F" /><path d="M817.92 856c-51.12-2.4-48 16-99.04 28.88-51.36 11.12-54.08-28.08-104.96-28.88s-49.84 48.4-102 49.12c-52.16-0.8-51.12-50-102-49.12s-53.6 40-104.96 28.88c-51.2-12.48-48-31.28-98.96-28.88h-8.8a71.2 71.2 0 0 0-5.2 24c0 48 56 64 320 64s320-16 320-64a71.2 71.2 0 0 0-5.2-24z" fill="#FFFFFF" /></svg>