<?xml version="1.0" ?>
<!DOCTYPE svg  PUBLIC '-//W3C//DTD SVG 1.1//EN'  'http://www.w3.org/Graphics/SVG/1.1/DTD/svg11.dtd'>
<!-- Uploaded to: SVG Repo, www.svgrepo.com, Generator: SVG Repo Mixer Tools -->
<svg width="800px" height="800px" viewBox="0 0 512 512" enable-background="new 0 0 512 512" id="Layer_1" version="1.1" xml:space="preserve" xmlns="http://www.w3.org/2000/svg" xmlns:xlink="http://www.w3.org/1999/xlink">
<g>
<g>
<rect fill="#55939C" height="50.188" width="235.836" x="138.082" y="381.83"/>
<path d="M373.918,442.018H138.082c-5.522,0-10-4.478-10-10V381.83c0-5.522,4.478-10,10-10h235.836    c5.522,0,10,4.478,10,10v50.188C383.918,437.54,379.44,442.018,373.918,442.018z M148.082,422.018h215.836V391.83H148.082V422.018    z" fill="#444B54"/>
</g>
<g>
<path d="M373.918,391.83H138.082c-5.522,0-10-4.478-10-10V60.314c0-5.522,4.478-10,10-10h235.836    c5.522,0,10,4.478,10,10V381.83C383.918,387.353,379.44,391.83,373.918,391.83z M148.082,371.83h215.836V70.314H148.082V371.83z" fill="#444B54"/>
</g>
<g>
<path d="M373.918,391.83H256c-5.522,0-10-4.478-10-10V60.314c0-5.522,4.478-10,10-10h117.918    c5.522,0,10,4.478,10,10V381.83C383.918,387.353,379.44,391.83,373.918,391.83z M266,371.83h97.918V70.314H266V371.83z" fill="#444B54"/>
</g>
<g>
<path d="M227.444,255.98c-5.522,0-10-4.478-10-10v-29.879c0-5.522,4.478-10,10-10s10,4.478,10,10v29.879    C237.444,251.503,232.967,255.98,227.444,255.98z" fill="#444B54"/>
</g>
<g>
<path d="M285.351,255.98c-5.522,0-10-4.478-10-10v-29.879c0-5.522,4.478-10,10-10s10,4.478,10,10v29.879    C295.351,251.503,290.873,255.98,285.351,255.98z" fill="#444B54"/>
</g>
<g>
<path d="M373.918,442.018H138.082c-5.522,0-10-4.478-10-10V381.83c0-5.522,4.478-10,10-10h235.836    c5.522,0,10,4.478,10,10v50.188C383.918,437.54,379.44,442.018,373.918,442.018z M148.082,422.018h215.836V391.83H148.082V422.018    z" fill="#444B54"/>
</g>
<g>
<path d="M138.082,461.686c-5.522,0-10-4.478-10-10v-19.668c0-5.522,4.478-10,10-10s10,4.478,10,10v19.668    C148.082,457.208,143.604,461.686,138.082,461.686z" fill="#444B54"/>
</g>
<g>
<path d="M373.918,461.686c-5.522,0-10-4.478-10-10v-19.668c0-5.522,4.478-10,10-10s10,4.478,10,10v19.668    C383.918,457.208,379.44,461.686,373.918,461.686z" fill="#444B54"/>
</g>
<g>
<rect fill="#D0C144" height="321.516" width="235.836" x="138.082" y="60.314"/>
<path d="M373.918,391.83H138.082c-5.522,0-10-4.478-10-10V60.314c0-5.522,4.478-10,10-10h235.836    c5.522,0,10,4.478,10,10V381.83C383.918,387.353,379.44,391.83,373.918,391.83z M148.082,371.83h215.836V70.314H148.082V371.83z" fill="#444B54"/>
</g>
<g>
<rect fill="#F16259" height="321.516" width="117.918" x="256" y="60.314"/>
<path d="M373.918,391.83H256c-5.522,0-10-4.478-10-10V60.314c0-5.522,4.478-10,10-10h117.918    c5.522,0,10,4.478,10,10V381.83C383.918,387.353,379.44,391.83,373.918,391.83z M266,371.83h97.918V70.314H266V371.83z" fill="#444B54"/>
</g>
<g>
<path d="M227.444,255.98c-5.522,0-10-4.478-10-10v-29.879c0-5.522,4.478-10,10-10s10,4.478,10,10v29.879    C237.444,251.503,232.967,255.98,227.444,255.98z" fill="#444B54"/>
</g>
<g>
<path d="M285.351,255.98c-5.522,0-10-4.478-10-10v-29.879c0-5.522,4.478-10,10-10s10,4.478,10,10v29.879    C295.351,251.503,290.873,255.98,285.351,255.98z" fill="#444B54"/>
</g>
<g>
<path d="M138.082,461.686c-5.522,0-10-4.478-10-10v-19.668c0-5.522,4.478-10,10-10s10,4.478,10,10v19.668    C148.082,457.208,143.604,461.686,138.082,461.686z" fill="#444B54"/>
</g>
<g>
<path d="M373.918,461.686c-5.522,0-10-4.478-10-10v-19.668c0-5.522,4.478-10,10-10s10,4.478,10,10v19.668    C383.918,457.208,379.44,461.686,373.918,461.686z" fill="#444B54"/>
</g>
</g>
</svg>